<svg xmlns="http://www.w3.org/2000/svg" xmlns:xlink="http://www.w3.org/1999/xlink" id="Layer_1" x="0px" y="0px" width="450px" height="450px" viewBox="0 0 450 450" xml:space="preserve">
<g>
	<g>
		<defs>
			<polygon id="SVGID_1_" points="289.169,123.682 214.603,252.475 137.731,208.264 137.731,151.835 106.452,97.661      106.452,227.673 224.995,295.598 306.874,153.326 306.874,123.682    "></polygon>
		</defs>
		<clipPath id="SVGID_2_">
			<use xlink:href="#SVGID_1_"></use>
		</clipPath>
		
			<linearGradient id="SVGID_3_" gradientUnits="userSpaceOnUse" x1="-506.5801" y1="4790.4946" x2="-504.0771" y2="4790.4946" gradientTransform="matrix(80.0819 0 0 80.0819 40674.2852 -383435.2813)">
			<stop offset="0" style="stop-color:#323537"></stop>
			<stop offset="1" style="stop-color:#000000"></stop>
		</linearGradient>
		<rect x="106.452" y="97.661" clip-path="url(#SVGID_2_)" fill="url(#SVGID_3_)" width="200.422" height="197.938"></rect>
	</g>
</g>
<g>
	<g>
		<defs>
			<polygon id="SVGID_4_" points="278.804,82.829 342.95,82.837 230.399,17.687 106.647,88.923 189.054,232.004 213.038,245.797      223.177,228.36 150.233,100.879 230.821,55.234    "></polygon>
		</defs>
		<clipPath id="SVGID_5_">
			<use xlink:href="#SVGID_4_"></use>
		</clipPath>
		
			<linearGradient id="SVGID_6_" gradientUnits="userSpaceOnUse" x1="-506.627" y1="4789.689" x2="-504.124" y2="4789.689" gradientTransform="matrix(94.4189 0 0 94.4189 47941.793 -452105.4063)">
			<stop offset="0" style="stop-color:#F78F2E"></stop>
			<stop offset="1" style="stop-color:#FEBE46"></stop>
		</linearGradient>
		<rect x="106.647" y="17.686" clip-path="url(#SVGID_5_)" fill="url(#SVGID_6_)" width="236.303" height="228.111"></rect>
	</g>
</g>
<g>
	<g>
		<defs>
			<polygon id="SVGID_7_" points="182.597,87.58 156.296,102.704 165.854,119.279 311.132,119.161 311.132,215.377 259.518,245.035      229.527,296.876 342.41,232.267 342.626,87.58    "></polygon>
		</defs>
		<clipPath id="SVGID_8_">
			<use xlink:href="#SVGID_7_"></use>
		</clipPath>
		
			<linearGradient id="SVGID_9_" gradientUnits="userSpaceOnUse" x1="-506.1523" y1="4790.6548" x2="-503.6494" y2="4790.6548" gradientTransform="matrix(74.4501 0 0 74.4501 37839.3945 -356472.5313)">
			<stop offset="0" style="stop-color:#323537"></stop>
			<stop offset="1" style="stop-color:#000000"></stop>
		</linearGradient>
		<rect x="156.296" y="87.58" clip-path="url(#SVGID_8_)" fill="url(#SVGID_9_)" width="186.33" height="209.297"></rect>
	</g>
</g>
<polygon fill="#FBAE37" points="85.626,405.256 71.255,405.256 71.255,376.516 39.741,376.516 39.741,405.256 25.367,405.256   25.367,333.402 39.741,333.402 39.741,362.145 71.255,362.145 71.255,333.402 85.626,333.402 "></polygon>
<g>
	<path fill="#FBAE37" d="M100.832,369.02c1.231-3.286,2.976-6.143,5.235-8.568c2.257-2.434,5.012-4.332,8.265-5.7   c3.25-1.368,6.895-2.053,10.928-2.053c3.902,0,7.429,0.652,10.577,1.949c3.146,1.298,5.816,3.132,8.007,5.494   c2.187,2.359,3.864,5.237,5.03,8.618c1.161,3.391,1.744,7.138,1.744,11.244v3.695h-37.775l0.103,0.207   c0.411,1.708,1.079,3.18,2,4.414c0.927,1.23,2.003,2.258,3.233,3.077c1.234,0.821,2.586,1.421,4.057,1.798   c1.472,0.373,2.959,0.563,4.466,0.563c3.079,0,5.833-0.477,8.262-1.438c2.433-0.955,4.534-2.224,6.314-3.798l5.647,11.191   c-2.12,1.78-4.826,3.353-8.109,4.72c-3.286,1.371-7.393,2.057-12.318,2.057c-4.313,0-8.18-0.686-11.601-2.057   c-3.422-1.366-6.314-3.251-8.674-5.645c-2.36-2.395-4.157-5.236-5.388-8.52c-1.232-3.287-1.851-6.844-1.851-10.678   C98.981,375.829,99.6,372.305,100.832,369.02 M132.551,366.918c-1.846-1.816-4.416-2.723-7.701-2.723   c-3.283,0-5.952,0.842-8.005,2.518c-2.053,1.676-3.421,4.052-4.104,7.131h23.097C135.494,371.04,134.396,368.731,132.551,366.918"></path>
	<path fill="#FBAE37" d="M169.105,355.674c3.968-1.916,8.759-2.873,14.373-2.873c7.526,0,13.157,1.676,16.884,5.03   c3.732,3.353,5.596,8.624,5.596,15.811v31.718h-13.553v-6.982c-1.366,2.058-3.336,3.904-5.898,5.543   c-2.567,1.646-5.872,2.467-9.905,2.467c-2.535,0-4.86-0.393-6.983-1.18s-3.952-1.884-5.493-3.287c-1.54-1.4-2.736-3.079-3.59-5.03   c-0.858-1.949-1.286-4.123-1.286-6.519c0-2.326,0.411-4.429,1.234-6.312c0.821-1.882,1.965-3.51,3.438-4.878   c1.472-1.366,3.199-2.479,5.183-3.336c1.984-0.854,4.174-1.385,6.57-1.589l14.065-1.232c1.777-0.207,2.665-0.892,2.665-2.056   v-0.821c0-1.503-0.716-2.737-2.152-3.692c-1.439-0.961-3.696-1.44-6.775-1.44c-1.368,0-2.706,0.12-4.007,0.361   c-1.299,0.238-2.529,0.617-3.694,1.128c-1.163,0.512-2.189,1.184-3.081,2.004c-0.888,0.82-1.572,1.846-2.051,3.078l-10.059-7.187   C162.298,360.501,165.135,357.591,169.105,355.674 M179.679,384.007c-2.123,0.344-3.715,1.011-4.772,2.001   c-1.062,0.994-1.593,2.21-1.593,3.646c0,1.643,0.616,2.961,1.847,3.949c1.234,0.997,3.046,1.49,5.441,1.49   c1.779,0,3.403-0.289,4.875-0.873c1.474-0.579,2.72-1.35,3.746-2.311c1.028-0.953,1.814-2.067,2.361-3.336   c0.546-1.264,0.819-2.615,0.819-4.055v-2.051L179.679,384.007z"></path>
	<polygon fill="#FBAE37" points="211.304,353.933 226.495,353.933 239.532,385.754 252.67,353.933 267.765,353.933 244.665,405.258    234.4,405.258  "></polygon>
	<polygon fill="#FBAE37" points="291.997,397.867 270.231,353.93 286.043,353.93 299.181,382.057 311.809,353.93 326.181,353.93    293.845,425.79 279.473,425.79  "></polygon>
	<polygon fill="#FBAE37" points="336.456,405.256 336.456,333.402 350.315,333.402 380.594,386.471 410.775,333.402    424.634,333.402 424.634,405.256 410.262,405.256 410.262,363.479 386.448,405.256 374.643,405.256 350.828,363.479    350.828,405.256  "></polygon>
</g>
</svg>